#!OML:ASF I:\Random Stuff\random\construction\7_22_03\Session 2\subj1.ASF
:FULLY-SPECIFIED
:DEGREES
869
root -8.28123 17.6092 -5.90377 -319.866 117.556 -336.609
lowerback 14.9941 1.49465 -6.04412
upperback 7.7496 2.08435 -8.32246
thorax 0.0185299 1.4568 -5.72052
lowerneck -20.9675 -3.86059 0.187328
upperneck 45.3719 -7.89412 11.7674
head 24.6856 -0.513591 5.15521
rclavicle 5.40694e-014 5.40694e-014
rhumerus -12.3226 59.2422 -62.9543
rradius 74.9794
rwrist -38.8607
rhand -21.8814 -6.94343
rfingers 7.12502
rthumb 4.52329 -36.8751
lclavicle 5.40694e-014 5.40694e-014
lhumerus 51.3164 -74.2504 40.8523
lradius 42.1992
lwrist -12.6372
lhand -25.0003 60.5406
lfingers 7.12502
lthumb 1.51124 269.485
rfemur -11.6684 -5.59303 25.3671
rtibia -3.57812e-014
rfoot -2.84049 -10.3705
rtoes -26.3401
lfemur -39.9134 -11.6103 -0.128016
ltibia 36.2148
lfoot -15.9568 -2.82953
ltoes -33.1186
870
root -8.27212 17.6106 -5.90249 -319.89 117.652 -336.608
lowerback 14.9881 1.51892 -6.05178
upperback 7.76652 2.12303 -8.34207
thorax 0.0433448 1.47826 -5.74276
lowerneck -21.0288 -3.87275 0.219268
upperneck 45.3002 -7.98073 11.8569
head 24.6696 -0.526717 5.17209
rclavicle 3.18055e-015 -6.99722e-014
rhumerus -12.6322 58.5521 -63.3145
rradius 75.0206
rwrist -40.5371
rhand -21.102 -7.54207
rfingers 7.12502
rthumb 5.27585 -37.4564
lclavicle 3.18055e-015 -6.99722e-014
lhumerus 51.654 -74.3113 40.5043
lradius 42.1848
lwrist -12.7745
lhand -24.958 60.4415
lfingers 7.12502
lthumb 1.55213 269.584
rfemur -11.6038 -5.66384 25.4373
rtibia 3.89618e-014
rfoot -2.91873 -10.373
rtoes -26.3727
lfemur -39.9284 -11.6179 -0.0807575
ltibia 36.2371
lfoot -15.9474 -2.94336
ltoes -33.1704
871
root -8.26417 17.6101 -5.90103 -319.924 117.752 -336.639
lowerback 14.9756 1.5533 -6.08169
upperback 7.78917 2.17188 -8.32843
thorax 0.076103 1.50243 -5.71711
lowerneck -21.1464 -3.91985 0.166973
upperneck 45.168 -8.09949 11.9192
head 24.6226 -0.573261 5.1698
rclavicle -2.22639e-014 9.85972e-014
rhumerus -13.0681 58.3425 -63.7091
rradius 75.0062
rwrist -40.1382
rhand -21.1124 -8.18119
rfingers 7.12502
rthumb 5.26581 -38.0958
lclavicle -2.22639e-014 9.85972e-014
lhumerus 51.7662 -74.3348 40.4551
lradius 42.1943
lwrist -13.0294
lhand -24.784 60.4327
lfingers 7.12502
lthumb 1.7202 269.595
rfemur -11.5692 -5.74616 25.4995
rtibia 2.38542e-015
rfoot -2.9582 -10.3803
rtoes -26.4593
lfemur -39.9606 -11.6575 -0.0311313
ltibia 36.2526
lfoot -15.9481 -2.97168
ltoes -33.5163
872
root -8.25621 17.6099 -5.89852 -319.948 117.814 -336.699
lowerback 14.928 1.62112 -6.1463
upperback 7.80897 2.26338 -8.3085
thorax 0.125718 1.54618 -5.66956
lowerneck -21.3068 -4.02125 0.0528427
upperneck 45.0251 -8.30318 12.0226
head 24.6169 -0.657465 5.18549
rclavicle 1.59028e-014 -9.85972e-014
rhumerus -13.5116 58.0303 -64.0982
rradius 74.8826
rwrist -39.6306
rhand -21.1624 -8.91348
rfingers 7.12502
rthumb 5.21754 -38.8292
lclavicle 1.59028e-014 -9.85972e-014
lhumerus 51.9648 -74.4005 40.328
lradius 42.2676
lwrist -13.1395
lhand -24.6536 60.4324
lfingers 7.12502
lthumb 1.84607 269.596
rfemur -11.5903 -5.80269 25.5355
rtibia 2.3059e-014
rfoot -2.94375 -10.3803
rtoes -26.6279
lfemur -39.9959 -11.6669 -0.00755955
ltibia 36.2554
lfoot -15.9786 -2.95927
ltoes -34.079
873
root -8.24895 17.6109 -5.89555 -319.989 117.882 -336.782
lowerback 14.8995 1.68944 -6.20662
upperback 7.81421 2.35132 -8.29181
thorax 0.149306 1.58816 -5.62877
lowerneck -21.4339 -4.12841 -0.0332302
upperneck 44.9117 -8.52876 12.1582
head 24.6383 -0.738895 5.21592
rclavicle -2.22639e-014 9.54166e-015
rhumerus -14.0266 57.4689 -64.4808
rradius 74.7835
rwrist -40.7711
rhand -20.9091 -8.87166
rfingers 7.12502
rthumb 5.46214 -38.7813
lclavicle -2.22639e-014 9.54166e-015
lhumerus 52.1844 -74.4949 40.1818
lradius 42.342
lwrist -13.1204
lhand -24.6296 60.4408
lfingers 7.12502
lthumb 1.86932 269.588
rfemur -11.6066 -5.87147 25.564
rtibia -2.46493e-014
rfoot -2.96829 -10.3818
rtoes -26.3806
lfemur -40.031 -11.6013 -0.0174532
ltibia 36.2398
lfoot -15.9534 -3.08338
ltoes -34.1568
874
root -8.24251 17.6124 -5.89443 -320.08 117.997 -336.892
lowerback 14.9117 1.73762 -6.18593
upperback 7.81221 2.41975 -8.31379
thorax 0.146671 1.62519 -5.67537
lowerneck -21.5058 -4.20338 -0.0446515
upperneck 44.8235 -8.73492 12.3425
head 24.6629 -0.790968 5.27064
rclavicle 6.36111e-015 -1.7334e-013
rhumerus -14.4179 55.9118 -64.7026
rradius 73.8531
rwrist -45.6525
rhand -16.8094 -16.6274
rfingers 7.12502
rthumb 9.41924 -46.3969
lclavicle 6.36111e-015 -1.7334e-013
lhumerus 52.371 -74.6369 40.0498
lradius 42.3868
lwrist -13.0584
lhand -24.6699 60.505
lfingers 7.12502
lthumb 1.83041 269.523
rfemur -11.5858 -5.98801 25.6071
rtibia -7.95139e-015
rfoot -2.97521 -10.4021
rtoes -26.1224
lfemur -40.0538 -11.5302 -0.0377784
ltibia 36.2124
lfoot -15.9218 -3.26967
ltoes -33.8789
875
root -8.23442 17.6148 -5.89473 -320.191 118.105 -337.024
lowerback 14.9017 1.73284 -6.2403
upperback 7.82291 2.41033 -8.29146
thorax 0.160321 1.6186 -5.61808
lowerneck -21.5927 -4.20669 -0.124931
upperneck 44.7421 -8.76297 12.4375
head 24.6511 -0.805651 5.32784
rclavicle 1.27222e-014 -4.29375e-014
rhumerus -15.2987 55.5032 -65.2402
rradius 75.1641
rwrist -61.6872
rhand -22.8552 -13.257
rfingers 7.12502
rthumb 3.58296 -43.2066
lclavicle 1.27222e-014 -4.29375e-014
lhumerus 51.5333 -74.599 40.9643
lradius 42.4144
lwrist -13.0864
lhand -24.7854 60.5204
lfingers 7.12502
lthumb 1.7188 269.507
rfemur -11.5714 -6.10642 25.6357
rtibia -7.95139e-016
rfoot -2.92447 -10.413
rtoes -26.1508
lfemur -40.0704 -11.5731 -0.0344156
ltibia 36.1832
lfoot -15.8836 -3.30924
ltoes -33.8847
